<?xml version="1.0" encoding="UTF-8" standalone="no"?>
<svg
   xmlns:dc="http://purl.org/dc/elements/1.1/"
   xmlns:cc="http://creativecommons.org/ns#"
   xmlns:rdf="http://www.w3.org/1999/02/22-rdf-syntax-ns#"
   xmlns:svg="http://www.w3.org/2000/svg"
   xmlns="http://www.w3.org/2000/svg"
   version="1.1"
   viewBox="0 0 290.56 293.08"
   data-name="Layer 1"
   id="Layer_1">
  <metadata
     id="metadata4510">
    <rdf:RDF>
      <cc:Work
         rdf:about="">
        <dc:format>image/svg+xml</dc:format>
        <dc:type
           rdf:resource="http://purl.org/dc/dcmitype/StillImage" />
        <dc:title>buttplug-logo-2</dc:title>
      </cc:Work>
    </rdf:RDF>
  </metadata>
  <defs
     id="defs4487">
    <style
       id="style4485">.cls-1,.cls-3{fill:none;}.cls-1{stroke:#fff;stroke-miterlimit:10;}.cls-2{fill:#fff;}</style>
  </defs>
  <title
     id="title4489">buttplug-logo-2</title>
  <g
     style="display:none"
     id="layer2">
    <rect
       id="rect4491"
       ry="32"
       rx="32"
       height="292.07999"
       width="289.56"
       y="0.49999657"
       x="0.5"
       style="display:inline" />
    <rect
       style="display:inline;fill:none;stroke:#ffffff;stroke-miterlimit:10"
       id="rect4493"
       ry="32"
       rx="32"
       height="292.07999"
       width="289.56"
       y="0.49999657"
       x="0.5"
       class="cls-1" />
  </g>
  <g
     style="display:none"
     id="layer4">
    <rect
       style="display:inline;fill:#ffffff"
       id="rect4495"
       ry="25"
       rx="25"
       height="271.63"
       width="269.29001"
       y="10.719996"
       x="10.63"
       class="cls-2" />
    <rect
       id="rect4499"
       ry="20"
       rx="20"
       height="258.04999"
       width="255.83"
       y="17.509996"
       x="17.370001"
       style="display:inline" />
    <rect
       style="display:inline;fill:none;stroke:#ffffff;stroke-miterlimit:10"
       id="rect4501"
       ry="20"
       rx="20"
       height="258.04999"
       width="255.83"
       y="17.509996"
       x="17.370001"
       class="cls-1" />
    <rect
       style="display:inline;fill:none;stroke:#ffffff;stroke-miterlimit:10"
       id="rect4497"
       ry="25"
       rx="25"
       height="271.63"
       width="269.29001"
       y="10.719996"
       x="10.63"
       class="cls-1" />
  </g>
  <g
     id="g4760"
     style="display:inline">
    <circle
       r="145.83673"
       cy="146.53999"
       cx="145.28"
       id="path4762"
       style="fill:#000000;fill-opacity:1;stroke:none;stroke-width:15.55431366;stroke-linecap:round;stroke-linejoin:round;stroke-miterlimit:4;stroke-dasharray:none;stroke-dashoffset:0;stroke-opacity:1;paint-order:fill markers stroke" />
  </g>
  <g
     style="display:none"
     id="layer5">
    <path
       style="display:inline;fill:#000000;fill-opacity:1;stroke-width:12.69999981;stroke-miterlimit:4;stroke-dasharray:none"
       id="path4505-1"
       d="m 85.42,257.68 a 3.07,3.07 0 0 1 -1.71,-5.64 107.76,107.76 0 0 1 14.2,-9.47 l 2.32,-1.36 c 2.57,-1.54 5.24,-3 7.83,-4.36 a 95,95 0 0 0 13.73,-8.38 c 1.9,-1.49 2.33,-6.94 2.59,-10.2 v -0.12 c 0.86,-10.76 1,-22.09 -7.83,-32 -9.93,-11.24 -8.63,-25.63 -6.06,-38.22 3,-14.72 5.94,-29.72 8.78,-44.22 3.34,-17.090006 6.8,-34.760006 10.41,-52.110006 1.82,-8.760001 6.31,-14.550001 12.3,-15.88 a 20.85,20.85 0 0 1 6.58,0 c 6,1.329999 10.48,7.119999 12.3,15.88 3.61,17.35 7.07,35 10.41,52.120006 2.83,14.5 5.77,29.49 8.78,44.21 2.58,12.59 3.87,27 -6.06,38.22 -8.79,10 -8.69,21.29 -7.83,32 v 0.12 c 0.26,3.26 0.69,8.71 2.6,10.2 a 95.08,95.08 0 0 0 13.73,8.38 c 2.58,1.39 5.26,2.82 7.83,4.36 l 2.32,1.36 a 108,108 0 0 1 14.2,9.47 3.07,3.07 0 0 1 -1.81,5.64 z m 2.69,-4 h 114.33 a 109.85,109.85 0 0 0 -11.81,-7.65 l -2.37,-1.39 c -2.48,-1.49 -5.11,-2.9 -7.66,-4.26 a 98.21,98.21 0 0 1 -14.31,-8.76 c -3.28,-2.57 -3.75,-8.37 -4.12,-13 v -0.12 c -0.93,-11.61 -1,-23.88 8.83,-35 8.74,-9.9 7.63,-22.56 5.14,-34.77 -3,-14.73 -5.95,-29.74 -8.79,-44.25 -3.34,-17.080006 -6.79,-34.750006 -10.4,-52.070006 -1.49,-7.150001 -4.86,-11.810001 -9.25,-12.790001 a 9.39,9.39 0 0 0 -2.27,-0.17 h -0.33 a 9.32,9.32 0 0 0 -2.27,0.17 c -4.39,1 -7.76,5.64 -9.25,12.790001 -3.61,17.32 -7.06,35 -10.4,52.060006 -2.84,14.51 -5.77,29.52 -8.79,44.25 -2.5,12.21 -3.61,24.87 5.14,34.77 9.83,11.13 9.75,23.4 8.82,35 v 0.12 c -0.37,4.66 -0.83,10.46 -4.12,13 a 98.14,98.14 0 0 1 -14.31,8.76 c -2.54,1.36 -5.17,2.77 -7.66,4.26 l -2.37,1.39 a 109.88,109.88 0 0 0 -11.79,7.65 z"
       class="cls-2" />
    <path
       id="path4701"
       d="m 145.50195,37.482422 c -8.33381,0 -10.85773,7.280208 -12.0625,9.703125 -1.20477,2.422917 -21.33593,105.212893 -21.33593,105.212893 0,0 -3.10739,16.5405 1.79687,25.375 1.48139,2.66856 1.80291,3.83737 5.22266,7.77539 2.20971,2.54459 5.99595,7.81933 7.3789,15.67578 1.72722,9.8122 -0.0121,25.69879 -1.96679,27.7168 -3.87496,4.00042 -13.35564,8.57248 -22.65625,13.90039 -9.300618,5.32792 -17.476417,10.57833 -17.533207,12.67968 h 61.156247 61.1543 c -0.0568,-2.10135 -8.23259,-7.35176 -17.5332,-12.67968 -9.30061,-5.32791 -18.77934,-9.89997 -22.6543,-13.90039 -1.95473,-2.01801 -3.69597,-17.9046 -1.96875,-27.7168 1.38295,-7.85645 5.1692,-13.13119 7.37891,-15.67578 3.41975,-3.93802 3.74126,-5.10683 5.22265,-7.77539 4.90426,-8.8345 1.79688,-25.375 1.79688,-25.375 0,0 -20.13117,-102.789976 -21.33594,-105.212893 -1.20477,-2.422917 -3.72674,-9.703125 -12.06055,-9.703125 z"
       style="fill:none;fill-rule:evenodd;stroke:#090000;stroke-width:15.60000038;stroke-linecap:round;stroke-linejoin:round;stroke-miterlimit:4;stroke-dasharray:none;stroke-opacity:1" />
  </g>
  <g
     style="display:inline"
     id="layer6">
    <path
       id="path4641"
       d="m 145.83398,39.439449 a 9.39,9.39 0 0 0 -0.40429,0.0098 h -0.33008 a 9.32,9.32 0 0 0 -0.93164,0.0039 9.32,9.32 0 0 0 -0.92578,0.09375 9.32,9.32 0 0 0 -0.41211,0.07227 c -1.0975,0.25 -2.13133,0.728672 -3.08789,1.416015 -0.95656,0.687344 -1.83625,1.584453 -2.625,2.673828 -0.78875,1.089375 -1.48602,2.370079 -2.08008,3.826172 -0.59406,1.456094 -1.08453,3.0875 -1.45703,4.875 -3.61,17.32 -7.06039,35.000544 -10.40039,52.060546 -2.84,14.51 -5.76906,29.52 -8.78907,44.25 -0.625,3.0525 -1.16351,6.13282 -1.48242,9.19141 -0.3189,3.05859 -0.41789,6.09422 -0.16601,9.05859 0.12594,1.48219 0.33799,2.9469 0.65625,4.38672 0.31826,1.43983 0.74148,2.85531 1.28515,4.24024 0.54368,1.38492 1.20955,2.73916 2.01172,4.05664 0.80217,1.31748 1.74024,2.59843 2.83399,3.83593 1.22875,1.39125 2.30347,2.79932 3.24023,4.22266 0.93676,1.42334 1.73586,2.86219 2.41602,4.31055 0.68015,1.44836 1.24027,2.90674 1.69922,4.37304 0.45894,1.46631 0.81671,2.94079 1.08984,4.41797 0.54625,2.95438 0.75617,5.92344 0.77148,8.87891 0.0153,2.95547 -0.16398,5.89687 -0.39648,8.79687 v 0.11915 c -0.185,2.32999 -0.39234,4.94492 -0.96484,7.29492 -0.28625,1.175 -0.66422,2.28406 -1.17579,3.25781 -0.51156,0.97375 -1.15601,1.81227 -1.97851,2.44727 a 98.14,98.14 0 0 1 -8.17969,5.41601 98.14,98.14 0 0 1 -6.13086,3.34375 c -2.54,1.36 -5.17015,2.77172 -7.66015,4.26172 l -2.369145,1.38867 a 109.88,109.88 0 0 0 -9.296875,5.84961 109.88,109.88 0 0 0 -2.494141,1.80078 l 0.0098,0.01 H 202.43945 a 109.85,109.85 0 0 0 -9.13086,-6.09766 109.85,109.85 0 0 0 -2.67773,-1.55273 l -2.37109,-1.38868 c -2.48,-1.49 -5.11016,-2.89976 -7.66016,-4.25976 a 98.21,98.21 0 0 1 -8.54883,-4.82617 98.21,98.21 0 0 1 -5.76172,-3.93555 c -0.82,-0.6425 -1.46351,-1.48539 -1.97461,-2.46289 -0.51109,-0.9775 -0.8889,-2.08867 -1.17578,-3.26367 -0.57375,-2.35 -0.78375,-4.95844 -0.96875,-7.27344 V 218.5 c -0.2325,-2.9025 -0.41078,-5.84602 -0.39453,-8.80273 0.0163,-2.95672 0.22789,-5.92649 0.77539,-8.88086 0.27375,-1.47719 0.63031,-2.95002 1.08984,-4.41602 0.45954,-1.466 1.02055,-2.92531 1.70118,-4.37305 0.68062,-1.44773 1.48093,-2.88423 2.41797,-4.30664 0.93703,-1.4224 2.01148,-2.8307 3.24023,-4.2207 1.0925,-1.2375 2.0308,-2.51846 2.83203,-3.83594 0.80123,-1.31748 1.46477,-2.67172 2.00781,-4.05664 0.54305,-1.38492 0.96526,-2.80041 1.28321,-4.24023 0.31795,-1.43983 0.53226,-2.90453 0.6582,-4.38672 0.25187,-2.96438 0.15359,-6 -0.16406,-9.05859 -0.31766,-3.0586 -0.85406,-6.13891 -1.47657,-9.19141 -3,-14.73 -5.95101,-29.74 -8.79101,-44.25 -3.34,-17.080008 -6.79039,-34.750318 -10.40039,-52.070318 -0.3725,-1.7875 -0.86102,-3.419297 -1.45508,-4.876953 -0.59406,-1.457656 -1.29328,-2.741406 -2.08203,-3.832031 -0.78875,-1.090625 -1.66844,-1.987422 -2.625,-2.673828 -0.95656,-0.686406 -1.99039,-1.163203 -3.08789,-1.408203 a 9.39,9.39 0 0 0 -0.92774,-0.136719 9.39,9.39 0 0 0 -0.9375,-0.04297 z"
       style="display:inline;fill:#000000;fill-opacity:1;stroke:none;stroke-width:1.75748026;stroke-linejoin:bevel;stroke-miterlimit:4;stroke-dasharray:none;stroke-dashoffset:0;stroke-opacity:1;paint-order:fill markers stroke" />
  </g>
  <g
     style="display:inline"
     id="layer1">
    <path
       style="fill:#ffffff"
       id="path4505"
       d="m 85.42,257.68 a 3.07,3.07 0 0 1 -1.71,-5.64 107.76,107.76 0 0 1 14.2,-9.47 l 2.32,-1.36 c 2.57,-1.54 5.24,-3 7.83,-4.36 a 95,95 0 0 0 13.73,-8.38 c 1.9,-1.49 2.33,-6.94 2.59,-10.2 v -0.12 c 0.86,-10.76 1,-22.09 -7.83,-32 -9.93,-11.24 -8.63,-25.63 -6.06,-38.22 3,-14.72 5.94,-29.72 8.78,-44.22 3.34,-17.090003 6.8,-34.760003 10.41,-52.110003 1.82,-8.76 6.31,-14.55 12.3,-15.88 a 20.85,20.85 0 0 1 6.58,0 c 6,1.33 10.48,7.12 12.3,15.88 3.61,17.35 7.07,35 10.41,52.120003 2.83,14.5 5.77,29.49 8.78,44.21 2.58,12.59 3.87,27 -6.06,38.22 -8.79,10 -8.69,21.29 -7.83,32 v 0.12 c 0.26,3.26 0.69,8.71 2.6,10.2 a 95.08,95.08 0 0 0 13.73,8.38 c 2.58,1.39 5.26,2.82 7.83,4.36 l 2.32,1.36 a 108,108 0 0 1 14.2,9.47 3.07,3.07 0 0 1 -1.81,5.64 z m 2.69,-4 h 114.33 a 109.85,109.85 0 0 0 -11.81,-7.65 l -2.37,-1.39 c -2.48,-1.49 -5.11,-2.9 -7.66,-4.26 a 98.21,98.21 0 0 1 -14.31,-8.76 c -3.28,-2.57 -3.75,-8.37 -4.12,-13 v -0.12 c -0.93,-11.61 -1,-23.88 8.83,-35 8.74,-9.9 7.63,-22.56 5.14,-34.77 -3,-14.73 -5.95,-29.74 -8.79,-44.25 -3.34,-17.080003 -6.79,-34.750003 -10.4,-52.070003 -1.49,-7.15 -4.86,-11.81 -9.25,-12.79 a 9.39,9.39 0 0 0 -2.27,-0.17 h -0.33 a 9.32,9.32 0 0 0 -2.27,0.17 c -4.39,1 -7.76,5.64 -9.25,12.79 -3.61,17.32 -7.06,35 -10.4,52.060003 -2.84,14.51 -5.77,29.52 -8.79,44.25 -2.5,12.21 -3.61,24.87 5.14,34.77 9.83,11.13 9.75,23.4 8.82,35 v 0.12 c -0.37,4.66 -0.83,10.46 -4.12,13 a 98.14,98.14 0 0 1 -14.31,8.76 c -2.54,1.36 -5.17,2.77 -7.66,4.26 l -2.37,1.39 a 109.88,109.88 0 0 0 -11.79,7.65 z"
       class="cls-2" />
  </g>
</svg>
